<mxfile host="65bd71144e">
    <diagram id="kgpKYQtTHZ0yAKxKKP6v" name="Page-1">
        <mxGraphModel dx="4497" dy="1562" grid="1" gridSize="10" guides="1" tooltips="1" connect="1" arrows="1" fold="1" page="1" pageScale="1" pageWidth="850" pageHeight="1100" math="0" shadow="0">
            <root>
                <mxCell id="0"/>
                <mxCell id="1" parent="0"/>
                <mxCell id="CxPesAvTZG-PsAYtESMr-20" value="opt" style="shape=umlFrame;whiteSpace=wrap;html=1;width=40;height=30;" parent="1" vertex="1">
                    <mxGeometry x="-50" y="1110" width="672.75" height="210" as="geometry"/>
                </mxCell>
                <mxCell id="CxPesAvTZG-PsAYtESMr-15" value="loop Rollen" style="shape=umlFrame;whiteSpace=wrap;html=1;" parent="1" vertex="1">
                    <mxGeometry x="-150" y="935" width="930" height="665" as="geometry"/>
                </mxCell>
                <mxCell id="21" value="loop Mietstation" style="shape=umlFrame;whiteSpace=wrap;html=1;width=70;height=30;" vertex="1" parent="1">
                    <mxGeometry x="-255" y="130" width="1445" height="1520" as="geometry"/>
                </mxCell>
                <mxCell id="3nuBFxr9cyL0pnOWT2aG-1" value=":Unternehmenszentrale" style="shape=umlLifeline;perimeter=lifelinePerimeter;container=1;collapsible=0;recursiveResize=0;rounded=0;shadow=0;strokeWidth=1;size=40;" parent="1" vertex="1">
                    <mxGeometry x="60" y="80" width="130" height="1600" as="geometry"/>
                </mxCell>
                <mxCell id="22" value="loop Mitarbeiter" style="shape=umlFrame;whiteSpace=wrap;html=1;width=70;height=30;" vertex="1" parent="3nuBFxr9cyL0pnOWT2aG-1">
                    <mxGeometry x="-150" y="900" width="850" height="610" as="geometry"/>
                </mxCell>
                <mxCell id="27" value="break" style="shape=umlFrame;whiteSpace=wrap;html=1;width=40;height=30;" vertex="1" parent="3nuBFxr9cyL0pnOWT2aG-1">
                    <mxGeometry x="-90" y="1110" width="480" height="70" as="geometry"/>
                </mxCell>
                <mxCell id="CxPesAvTZG-PsAYtESMr-2" value="" style="html=1;points=[];perimeter=orthogonalPerimeter;" parent="3nuBFxr9cyL0pnOWT2aG-1" vertex="1">
                    <mxGeometry x="60" y="60" width="10" height="1440" as="geometry"/>
                </mxCell>
                <mxCell id="18" value="" style="html=1;points=[];perimeter=orthogonalPerimeter;fontSize=14;" vertex="1" parent="3nuBFxr9cyL0pnOWT2aG-1">
                    <mxGeometry x="70.00000000000004" y="678.2" width="10" height="50" as="geometry"/>
                </mxCell>
                <mxCell id="19" value="definiereRollen()" style="html=1;verticalAlign=bottom;labelBackgroundColor=none;endArrow=block;endFill=1;rounded=0;fontSize=14;entryX=0.875;entryY=0;entryDx=0;entryDy=0;entryPerimeter=0;" edge="1" parent="3nuBFxr9cyL0pnOWT2aG-1" target="18" source="CxPesAvTZG-PsAYtESMr-2">
                    <mxGeometry x="0.3313" y="-54" width="160" relative="1" as="geometry">
                        <mxPoint x="71.21999999999991" y="649.9950000000001" as="sourcePoint"/>
                        <mxPoint x="-504.16999999999996" y="568.2" as="targetPoint"/>
                        <Array as="points">
                            <mxPoint x="115.83000000000004" y="650.2"/>
                            <mxPoint x="115.83000000000004" y="678.2"/>
                        </Array>
                        <mxPoint x="54" y="54" as="offset"/>
                    </mxGeometry>
                </mxCell>
                <mxCell id="20" value="&lt;div&gt;definiereRollen: Rolle[]&lt;/div&gt;" style="html=1;verticalAlign=bottom;labelBackgroundColor=none;endArrow=block;endFill=1;dashed=1;rounded=0;fontSize=14;" edge="1" parent="3nuBFxr9cyL0pnOWT2aG-1" target="CxPesAvTZG-PsAYtESMr-2">
                    <mxGeometry x="0.1339" y="-74" width="160" relative="1" as="geometry">
                        <mxPoint x="80.83000000000004" y="728.2" as="sourcePoint"/>
                        <mxPoint x="70.00000000000011" y="753.315" as="targetPoint"/>
                        <Array as="points">
                            <mxPoint x="115.83000000000004" y="728.2"/>
                            <mxPoint x="115.83000000000004" y="753.2"/>
                        </Array>
                        <mxPoint x="74" y="74" as="offset"/>
                    </mxGeometry>
                </mxCell>
                <mxCell id="28" value="[ist verfÃ¼gbar]" style="text;html=1;strokeColor=none;fillColor=none;align=center;verticalAlign=middle;whiteSpace=wrap;rounded=0;" vertex="1" parent="3nuBFxr9cyL0pnOWT2aG-1">
                    <mxGeometry x="-60" y="1110" width="110" height="30" as="geometry"/>
                </mxCell>
                <mxCell id="CxPesAvTZG-PsAYtESMr-23" value="[passende Rolle]" style="text;html=1;strokeColor=none;fillColor=none;align=center;verticalAlign=middle;whiteSpace=wrap;rounded=0;" parent="3nuBFxr9cyL0pnOWT2aG-1" vertex="1">
                    <mxGeometry x="-70" y="1030" width="110" height="30" as="geometry"/>
                </mxCell>
                <mxCell id="3nuBFxr9cyL0pnOWT2aG-5" value=":Personalplan" style="shape=umlLifeline;perimeter=lifelinePerimeter;container=1;collapsible=0;recursiveResize=0;rounded=0;shadow=0;strokeWidth=1;" parent="1" vertex="1">
                    <mxGeometry x="320" y="140" width="100" height="1540" as="geometry"/>
                </mxCell>
                <mxCell id="CxPesAvTZG-PsAYtESMr-5" value="" style="html=1;points=[];perimeter=orthogonalPerimeter;" parent="3nuBFxr9cyL0pnOWT2aG-5" vertex="1">
                    <mxGeometry x="45" y="60" width="10" height="70" as="geometry"/>
                </mxCell>
                <mxCell id="29" value="" style="html=1;points=[];perimeter=orthogonalPerimeter;" vertex="1" parent="3nuBFxr9cyL0pnOWT2aG-5">
                    <mxGeometry x="85" y="1080" width="10" height="20" as="geometry"/>
                </mxCell>
                <mxCell id="CxPesAvTZG-PsAYtESMr-1" value=":Mitarbeiter" style="shape=umlLifeline;perimeter=lifelinePerimeter;whiteSpace=wrap;html=1;container=1;collapsible=0;recursiveResize=0;outlineConnect=0;" parent="1" vertex="1">
                    <mxGeometry x="510" y="80" width="100" height="1600" as="geometry"/>
                </mxCell>
                <mxCell id="24" value="" style="html=1;points=[];perimeter=orthogonalPerimeter;" vertex="1" parent="CxPesAvTZG-PsAYtESMr-1">
                    <mxGeometry x="45" y="960" width="10" height="60" as="geometry"/>
                </mxCell>
                <mxCell id="CxPesAvTZG-PsAYtESMr-18" value="" style="html=1;points=[];perimeter=orthogonalPerimeter;" parent="CxPesAvTZG-PsAYtESMr-1" vertex="1">
                    <mxGeometry x="45" y="1050" width="10" height="50" as="geometry"/>
                </mxCell>
                <mxCell id="CxPesAvTZG-PsAYtESMr-3" value="create" style="endArrow=open;endSize=12;dashed=1;html=1;rounded=0;" parent="1" source="CxPesAvTZG-PsAYtESMr-2" edge="1">
                    <mxGeometry x="-0.0256" y="10" width="160" relative="1" as="geometry">
                        <mxPoint x="130" y="150" as="sourcePoint"/>
                        <mxPoint x="320" y="160" as="targetPoint"/>
                        <Array as="points">
                            <mxPoint x="220" y="160"/>
                        </Array>
                        <mxPoint as="offset"/>
                    </mxGeometry>
                </mxCell>
                <mxCell id="CxPesAvTZG-PsAYtESMr-4" value="setzeStartdatum()" style="html=1;verticalAlign=bottom;endArrow=block;rounded=0;" parent="1" source="CxPesAvTZG-PsAYtESMr-2" target="3nuBFxr9cyL0pnOWT2aG-5" edge="1">
                    <mxGeometry width="80" relative="1" as="geometry">
                        <mxPoint x="150" y="230" as="sourcePoint"/>
                        <mxPoint x="230" y="230" as="targetPoint"/>
                        <Array as="points">
                            <mxPoint x="260" y="200"/>
                        </Array>
                    </mxGeometry>
                </mxCell>
                <mxCell id="CxPesAvTZG-PsAYtESMr-6" value="" style="html=1;verticalAlign=bottom;endArrow=open;dashed=1;endSize=8;rounded=0;" parent="1" source="CxPesAvTZG-PsAYtESMr-5" target="CxPesAvTZG-PsAYtESMr-2" edge="1">
                    <mxGeometry relative="1" as="geometry">
                        <mxPoint x="280" y="250" as="sourcePoint"/>
                        <mxPoint x="200" y="250" as="targetPoint"/>
                        <Array as="points">
                            <mxPoint x="240" y="220"/>
                        </Array>
                    </mxGeometry>
                </mxCell>
                <mxCell id="CxPesAvTZG-PsAYtESMr-11" value="setzeEnddatum()" style="html=1;verticalAlign=bottom;endArrow=block;rounded=0;" parent="1" source="CxPesAvTZG-PsAYtESMr-2" target="CxPesAvTZG-PsAYtESMr-5" edge="1">
                    <mxGeometry width="80" relative="1" as="geometry">
                        <mxPoint x="270" y="350" as="sourcePoint"/>
                        <mxPoint x="350" y="350" as="targetPoint"/>
                        <Array as="points">
                            <mxPoint x="240" y="250"/>
                        </Array>
                    </mxGeometry>
                </mxCell>
                <mxCell id="CxPesAvTZG-PsAYtESMr-12" value="" style="html=1;verticalAlign=bottom;endArrow=open;dashed=1;endSize=8;rounded=0;" parent="1" source="CxPesAvTZG-PsAYtESMr-5" target="CxPesAvTZG-PsAYtESMr-2" edge="1">
                    <mxGeometry relative="1" as="geometry">
                        <mxPoint x="350" y="350" as="sourcePoint"/>
                        <mxPoint x="270" y="350" as="targetPoint"/>
                        <Array as="points">
                            <mxPoint x="250" y="270"/>
                        </Array>
                    </mxGeometry>
                </mxCell>
                <mxCell id="2" value="nachfragePrognostizieren()" style="html=1;verticalAlign=bottom;labelBackgroundColor=none;endArrow=block;endFill=1;rounded=0;fontSize=14;entryX=0.009;entryY=-0.002;entryDx=0;entryDy=0;entryPerimeter=0;" edge="1" parent="1" target="4" source="CxPesAvTZG-PsAYtESMr-2">
                    <mxGeometry x="-0.6784" width="160" relative="1" as="geometry">
                        <mxPoint x="150" y="341.9999999999998" as="sourcePoint"/>
                        <mxPoint x="1200" y="342" as="targetPoint"/>
                        <mxPoint x="-1" as="offset"/>
                    </mxGeometry>
                </mxCell>
                <mxCell id="3" value=":Marketing" style="shape=umlLifeline;perimeter=lifelinePerimeter;whiteSpace=wrap;html=1;container=1;collapsible=0;recursiveResize=0;outlineConnect=0;lifelineDashed=0;fontSize=14;size=40;" vertex="1" parent="1">
                    <mxGeometry x="730" y="80" width="180" height="1600" as="geometry"/>
                </mxCell>
                <mxCell id="4" value="" style="html=1;points=[];perimeter=orthogonalPerimeter;fontSize=14;" vertex="1" parent="3">
                    <mxGeometry x="84" y="263" width="10" height="315" as="geometry"/>
                </mxCell>
                <mxCell id="5" value="" style="html=1;points=[];perimeter=orthogonalPerimeter;fontSize=14;" vertex="1" parent="3">
                    <mxGeometry x="94" y="478" width="10" height="50" as="geometry"/>
                </mxCell>
                <mxCell id="6" value="vergangeneNachfrageAbrufen()" style="html=1;verticalAlign=bottom;labelBackgroundColor=none;endArrow=block;endFill=1;rounded=0;fontSize=14;entryX=0.875;entryY=0;entryDx=0;entryDy=0;entryPerimeter=0;exitX=1.039;exitY=0.593;exitDx=0;exitDy=0;exitPerimeter=0;" edge="1" parent="3" source="4" target="5">
                    <mxGeometry x="0.1503" y="120" width="160" relative="1" as="geometry">
                        <mxPoint x="99" y="448" as="sourcePoint"/>
                        <mxPoint x="249" y="448" as="targetPoint"/>
                        <Array as="points">
                            <mxPoint x="139" y="450"/>
                            <mxPoint x="139" y="478"/>
                        </Array>
                        <mxPoint as="offset"/>
                    </mxGeometry>
                </mxCell>
                <mxCell id="7" value="&lt;div&gt;vergangeneNachfrageAbrufen:&lt;/div&gt;&lt;div&gt;int&lt;br&gt;&lt;/div&gt;" style="html=1;verticalAlign=bottom;labelBackgroundColor=none;endArrow=block;endFill=1;dashed=1;rounded=0;fontSize=14;entryX=0.917;entryY=0.921;entryDx=0;entryDy=0;entryPerimeter=0;" edge="1" parent="3" target="4">
                    <mxGeometry x="0.1339" y="121" width="160" relative="1" as="geometry">
                        <mxPoint x="104" y="528" as="sourcePoint"/>
                        <mxPoint x="264" y="528" as="targetPoint"/>
                        <Array as="points">
                            <mxPoint x="139" y="528"/>
                            <mxPoint x="139" y="553"/>
                        </Array>
                        <mxPoint x="120" y="-106" as="offset"/>
                    </mxGeometry>
                </mxCell>
                <mxCell id="8" value=":Nachrichtenplattform" style="shape=umlLifeline;perimeter=lifelinePerimeter;whiteSpace=wrap;html=1;container=1;collapsible=0;recursiveResize=0;outlineConnect=0;lifelineDashed=0;fontSize=14;" vertex="1" parent="1">
                    <mxGeometry x="1030" y="80" width="180" height="1600" as="geometry"/>
                </mxCell>
                <mxCell id="9" value="" style="html=1;points=[];perimeter=orthogonalPerimeter;fontSize=14;" vertex="1" parent="8">
                    <mxGeometry x="84" y="278" width="10" height="50" as="geometry"/>
                </mxCell>
                <mxCell id="10" value="" style="html=1;points=[];perimeter=orthogonalPerimeter;fontSize=14;" vertex="1" parent="8">
                    <mxGeometry x="84" y="368" width="10" height="50" as="geometry"/>
                </mxCell>
                <mxCell id="11" value="besondereEreignisseAbfragen()" style="html=1;verticalAlign=bottom;labelBackgroundColor=none;endArrow=block;endFill=1;rounded=0;fontSize=14;entryX=0.178;entryY=0.004;entryDx=0;entryDy=0;entryPerimeter=0;" edge="1" parent="1" source="4" target="9">
                    <mxGeometry width="160" relative="1" as="geometry">
                        <mxPoint x="859" y="388" as="sourcePoint"/>
                        <mxPoint x="1019" y="388" as="targetPoint"/>
                    </mxGeometry>
                </mxCell>
                <mxCell id="12" value="" style="html=1;verticalAlign=bottom;labelBackgroundColor=none;endArrow=block;endFill=1;dashed=1;rounded=0;fontSize=14;entryX=1.1;entryY=0.198;entryDx=0;entryDy=0;entryPerimeter=0;" edge="1" parent="1" source="9" target="4">
                    <mxGeometry width="160" relative="1" as="geometry">
                        <mxPoint x="1119" y="405.3399999999999" as="sourcePoint"/>
                        <mxPoint x="854" y="405.3399999999999" as="targetPoint"/>
                    </mxGeometry>
                </mxCell>
                <mxCell id="13" value="wetterAbfragen()" style="html=1;verticalAlign=bottom;labelBackgroundColor=none;endArrow=block;endFill=1;rounded=0;fontSize=14;exitX=0.946;exitY=0.33;exitDx=0;exitDy=0;exitPerimeter=0;" edge="1" parent="1" source="4">
                    <mxGeometry width="160" relative="1" as="geometry">
                        <mxPoint x="855.0400000000004" y="447.9599999999998" as="sourcePoint"/>
                        <mxPoint x="1114" y="447.96000000000004" as="targetPoint"/>
                    </mxGeometry>
                </mxCell>
                <mxCell id="14" value="" style="html=1;verticalAlign=bottom;labelBackgroundColor=none;endArrow=block;endFill=1;dashed=1;rounded=0;fontSize=14;exitX=-0.193;exitY=0.886;exitDx=0;exitDy=0;exitPerimeter=0;entryX=0.918;entryY=0.493;entryDx=0;entryDy=0;entryPerimeter=0;" edge="1" parent="1" target="4">
                    <mxGeometry width="160" relative="1" as="geometry">
                        <mxPoint x="1112.0700000000006" y="497.34000000000015" as="sourcePoint"/>
                        <mxPoint x="854" y="497.3399999999999" as="targetPoint"/>
                    </mxGeometry>
                </mxCell>
                <mxCell id="15" value="nachfragePrognostizieren: int" style="html=1;verticalAlign=bottom;labelBackgroundColor=none;endArrow=block;endFill=1;dashed=1;rounded=0;fontSize=14;exitX=-0.1;exitY=0.997;exitDx=0;exitDy=0;exitPerimeter=0;" edge="1" parent="1" source="4" target="CxPesAvTZG-PsAYtESMr-2">
                    <mxGeometry x="0.6486" width="160" relative="1" as="geometry">
                        <mxPoint x="855" y="470" as="sourcePoint"/>
                        <mxPoint x="150" y="657" as="targetPoint"/>
                        <mxPoint x="1" as="offset"/>
                    </mxGeometry>
                </mxCell>
                <mxCell id="CxPesAvTZG-PsAYtESMr-16" value="getRolle()" style="html=1;verticalAlign=bottom;endArrow=block;rounded=0;" parent="1" source="CxPesAvTZG-PsAYtESMr-2" target="24" edge="1">
                    <mxGeometry width="80" relative="1" as="geometry">
                        <mxPoint x="170" y="1042" as="sourcePoint"/>
                        <mxPoint x="354" y="1042" as="targetPoint"/>
                        <Array as="points">
                            <mxPoint x="229" y="1042"/>
                        </Array>
                    </mxGeometry>
                </mxCell>
                <mxCell id="25" style="edgeStyle=none;html=1;dashed=1;" edge="1" parent="1" source="24" target="CxPesAvTZG-PsAYtESMr-2">
                    <mxGeometry relative="1" as="geometry"/>
                </mxCell>
                <mxCell id="26" value="getRolle: Rolle" style="edgeLabel;html=1;align=center;verticalAlign=middle;resizable=0;points=[];" vertex="1" connectable="0" parent="25">
                    <mxGeometry x="0.0494" y="1" relative="1" as="geometry">
                        <mxPoint x="17" y="-11" as="offset"/>
                    </mxGeometry>
                </mxCell>
                <mxCell id="CxPesAvTZG-PsAYtESMr-17" value="verfuegbarkeitPruefen()" style="html=1;verticalAlign=bottom;endArrow=block;rounded=0;" parent="1" edge="1">
                    <mxGeometry width="80" relative="1" as="geometry">
                        <mxPoint x="130" y="1132" as="sourcePoint"/>
                        <mxPoint x="555" y="1132" as="targetPoint"/>
                        <Array as="points">
                            <mxPoint x="460" y="1132"/>
                        </Array>
                    </mxGeometry>
                </mxCell>
                <mxCell id="CxPesAvTZG-PsAYtESMr-24" value="verfuegbarkeitPruefen(): boolean" style="html=1;verticalAlign=bottom;endArrow=open;dashed=1;endSize=8;rounded=0;" parent="1" edge="1">
                    <mxGeometry relative="1" as="geometry">
                        <mxPoint x="555" y="1177" as="sourcePoint"/>
                        <mxPoint x="130" y="1177" as="targetPoint"/>
                        <Array as="points">
                            <mxPoint x="470" y="1177"/>
                        </Array>
                    </mxGeometry>
                </mxCell>
                <mxCell id="CxPesAvTZG-PsAYtESMr-13" value="zuweisen(Mitarbeiter)" style="html=1;verticalAlign=bottom;endArrow=block;rounded=0;" parent="1" source="CxPesAvTZG-PsAYtESMr-2" target="29" edge="1">
                    <mxGeometry width="80" relative="1" as="geometry">
                        <mxPoint x="160" y="1220" as="sourcePoint"/>
                        <mxPoint x="395" y="1220" as="targetPoint"/>
                        <Array as="points">
                            <mxPoint x="270" y="1220"/>
                        </Array>
                    </mxGeometry>
                </mxCell>
                <mxCell id="CxPesAvTZG-PsAYtESMr-14" value="" style="html=1;verticalAlign=bottom;endArrow=open;dashed=1;endSize=8;rounded=0;" parent="1" source="29" target="CxPesAvTZG-PsAYtESMr-2" edge="1">
                    <mxGeometry relative="1" as="geometry">
                        <mxPoint x="395" y="1240" as="sourcePoint"/>
                        <mxPoint x="160" y="1240" as="targetPoint"/>
                        <Array as="points">
                            <mxPoint x="280" y="1240"/>
                        </Array>
                    </mxGeometry>
                </mxCell>
            </root>
        </mxGraphModel>
    </diagram>
</mxfile>